# xmcd CD database file
#
# Track frame offsets:
#	150
#	4030
#	18805
#	34653
#	48898
#	64578
#	82653
#	102453
#	115130
#	148878
#	166278
#
# Disc length: 2321 seconds
#
# Revision: 5
# Processed by: cddbd v1.5.2PL0 Copyright (c) Steve Scherf et al.
# Submitted via: CDex 1.51
#
DISCID=7d090f0b
DTITLE=Steamhammer - Steamhammer (1969)
DYEAR=1969
DGENRE=Progrock
TTITLE0=Water (part 1)
TTITLE1=Junior's Wailing
TTITLE2=Lost You Too
TTITLE3=She Is The Fire
TTITLE4=You'll Never Know
TTITLE5=Even The Clock
TTITLE6=Down The Highway
TTITLE7=On Your Road
TTITLE8=Twenty Four Hours
TTITLE9=When All Your Friends Are Gone
TTITLE10=Water (part 2)
EXTD=YEAR: 1969
EXTT0=
EXTT1=
EXTT2=
EXTT3=
EXTT4=
EXTT5=
EXTT6=
EXTT7=
EXTT8=
EXTT9=
EXTT10=
PLAYORDER=
